<?xml version="1.0" encoding="iso-8859-1"?>
<!-- Generator: Adobe Illustrator 19.0.0, SVG Export Plug-In . SVG Version: 6.00 Build 0)  -->
<svg version="1.1" id="Capa_1" xmlns="http://www.w3.org/2000/svg" xmlns:xlink="http://www.w3.org/1999/xlink" x="0px" y="0px"
	 viewBox="-388 265.323 64.956 64.957" style="enable-background:new -388 265.323 64.956 64.957;" xml:space="preserve">
<path style="fill:#474747;" d="M-363.234,265.822h-19.171c-2.853,0-5.188,2.195-5.188,5.053v18.768c0,2.86,2.335,5.488,5.188,5.488
	h19.171c2.855,0,5.189-2.628,5.189-5.488v-18.768C-358.045,268.017-360.379,265.822-363.234,265.822z M-363.234,289.933h-19.171
	v-19.058h19.171V289.933z M-363.234,300.471h-19.171c-2.853,0-5.188,2.339-5.188,5.199v18.911c0,2.86,2.335,5.199,5.188,5.199
	h19.171c2.855,0,5.189-2.337,5.189-5.199V305.67C-358.045,302.81-360.379,300.471-363.234,300.471z M-363.234,324.581h-19.171
	v-19.057h19.171V324.581z M-328.642,265.822h-19.024c-2.856,0-5.332,2.195-5.332,5.053v19.058c0,2.858,2.479,5.198,5.332,5.198
	h19.025c2.856,0,5.19-2.34,5.19-5.198v-19.058C-323.452,268.017-325.786,265.822-328.642,265.822z M-328.642,289.933h-19.024
	v-19.058h19.025L-328.642,289.933L-328.642,289.933z M-329.218,300.471h-18.594c-2.854,0-5.188,2.339-5.188,5.199v18.911
	c0,2.86,2.334,5.199,5.188,5.199h19.17c2.856,0,5.19-2.337,5.19-5.199V305.67C-323.452,302.81-326.364,300.471-329.218,300.471z
	 M-328.642,324.581h-19.024V305.67h19.025L-328.642,324.581L-328.642,324.581z"/>
</svg>
