<?xml version="1.0" encoding="iso-8859-1"?>
<!-- Generator: Adobe Illustrator 19.0.0, SVG Export Plug-In . SVG Version: 6.00 Build 0)  -->
<svg version="1.1" id="Layer_1" xmlns="http://www.w3.org/2000/svg" xmlns:xlink="http://www.w3.org/1999/xlink" x="0px" y="0px"
	 viewBox="0 0 500 500" style="enable-background:new 0 0 500 500;" xml:space="preserve">
<g id="XMLID_2_">
	<path id="XMLID_3_" style="fill:none;stroke:#000000;stroke-width:19;" d="M460.186,16v126.664h-12.425
		c-7.367-29.218-15.531-50.217-24.504-62.987c-8.973-12.77-21.285-22.951-36.93-30.544c-8.746-4.142-24.046-6.212-45.903-6.212
		h-34.858v361.008c0,23.933,1.321,38.887,3.969,44.867c2.642,5.986,7.819,11.216,15.531,15.704c7.705,4.487,18.232,6.73,31.579,6.73
		h15.53V484H127.133v-12.77h15.531c13.573,0,24.504-2.416,32.788-7.248c5.98-3.22,10.699-8.742,14.15-16.566
		c2.529-5.522,3.796-20.018,3.796-43.487V42.921h-33.823c-31.526,0-54.418,6.676-68.681,20.018
		c-20.018,18.637-32.675,45.212-37.965,79.725H39.814V16H460.186z"/>
</g>
</svg>
