<?xml version="1.0" encoding="iso-8859-1"?>
<!-- Generator: Adobe Illustrator 19.0.0, SVG Export Plug-In . SVG Version: 6.00 Build 0)  -->
<svg version="1.1" id="Capa_1" xmlns="http://www.w3.org/2000/svg" xmlns:xlink="http://www.w3.org/1999/xlink" x="0px" y="0px"
	 viewBox="-388 265.323 64.956 64.957" style="enable-background:new -388 265.323 64.956 64.957;" xml:space="preserve">
<path style="fill:#474747;" d="M-340.867,290.089v-19.171c0-2.853-2.195-5.188-5.053-5.188h-18.768c-2.86,0-5.488,2.335-5.488,5.188
	v19.171c0,2.855,2.628,5.189,5.488,5.189h18.768C-343.063,295.279-340.867,292.944-340.867,290.089z M-364.978,290.089v-19.171
	h19.058v19.171H-364.978z M-340.867,324.681v-19.024c0-2.856-2.195-5.332-5.053-5.332h-19.058c-2.858,0-5.198,2.479-5.198,5.332
	v19.025c0,2.856,2.34,5.19,5.198,5.19h19.058C-343.063,329.871-340.867,327.537-340.867,324.681z M-364.978,324.681v-19.024h19.058
	v19.025L-364.978,324.681L-364.978,324.681z"/>
</svg>
