<?xml version="1.0" encoding="iso-8859-1"?>
<!-- Generator: Adobe Illustrator 19.0.0, SVG Export Plug-In . SVG Version: 6.00 Build 0)  -->
<svg version="1.1" id="Capa_1" xmlns="http://www.w3.org/2000/svg" xmlns:xlink="http://www.w3.org/1999/xlink" x="0px" y="0px"
	 viewBox="-388 265.323 64.956 64.957" style="enable-background:new -388 265.323 64.956 64.957;" xml:space="preserve">
<path style="fill:#474747;" d="M-363.234,283.147h-19.171c-2.853,0-5.188,2.195-5.188,5.053v18.768c0,2.86,2.335,5.488,5.188,5.488
	h19.171c2.855,0,5.189-2.628,5.189-5.488V288.2C-358.045,285.342-360.379,283.147-363.234,283.147z M-363.234,307.258h-19.171V288.2
	h19.171V307.258z M-328.642,283.147h-19.024c-2.856,0-5.332,2.195-5.332,5.053v19.058c0,2.858,2.479,5.198,5.332,5.198h19.025
	c2.856,0,5.19-2.34,5.19-5.198V288.2C-323.452,285.342-325.786,283.147-328.642,283.147z M-328.642,307.258h-19.024V288.2h19.025
	L-328.642,307.258L-328.642,307.258z"/>
</svg>
